<mxfile host="app.diagrams.net" agent="Mozilla/5.0 (Macintosh; Intel Mac OS X 10_15_7) AppleWebKit/537.36 (KHTML, like Gecko) Chrome/129.0.0.0 Safari/537.36" version="24.7.17">
  <diagram name="Page-1" id="e7e014a7-5840-1c2e-5031-d8a46d1fe8dd">
    <mxGraphModel dx="2349" dy="795" grid="1" gridSize="10" guides="1" tooltips="1" connect="1" arrows="1" fold="1" page="1" pageScale="1" pageWidth="1169" pageHeight="826" background="none" math="0" shadow="0">
      <root>
        <mxCell id="0" />
        <mxCell id="1" parent="0" />
        <mxCell id="IgjHeNc4qlYZm83uj14o-72" value="" style="group" vertex="1" connectable="0" parent="1">
          <mxGeometry x="-1140" y="40" width="510" height="600" as="geometry" />
        </mxCell>
        <mxCell id="IgjHeNc4qlYZm83uj14o-69" value="注册流程" style="text;html=1;align=center;verticalAlign=middle;resizable=0;points=[];autosize=1;strokeColor=none;fillColor=none;" vertex="1" parent="IgjHeNc4qlYZm83uj14o-72">
          <mxGeometry x="195" width="70" height="30" as="geometry" />
        </mxCell>
        <mxCell id="IgjHeNc4qlYZm83uj14o-71" value="" style="group" vertex="1" connectable="0" parent="IgjHeNc4qlYZm83uj14o-72">
          <mxGeometry y="50" width="510" height="550" as="geometry" />
        </mxCell>
        <mxCell id="IgjHeNc4qlYZm83uj14o-45" value="" style="shape=umlLifeline;perimeter=lifelinePerimeter;whiteSpace=wrap;html=1;container=1;dropTarget=0;collapsible=0;recursiveResize=0;outlineConnect=0;portConstraint=eastwest;newEdgeStyle={&quot;curved&quot;:0,&quot;rounded&quot;:0};participant=umlActor;" vertex="1" parent="IgjHeNc4qlYZm83uj14o-71">
          <mxGeometry width="20" height="550" as="geometry" />
        </mxCell>
        <mxCell id="IgjHeNc4qlYZm83uj14o-46" value="API" style="shape=umlLifeline;perimeter=lifelinePerimeter;whiteSpace=wrap;html=1;container=1;dropTarget=0;collapsible=0;recursiveResize=0;outlineConnect=0;portConstraint=eastwest;newEdgeStyle={&quot;curved&quot;:0,&quot;rounded&quot;:0};" vertex="1" parent="IgjHeNc4qlYZm83uj14o-71">
          <mxGeometry x="180" width="100" height="550" as="geometry" />
        </mxCell>
        <mxCell id="IgjHeNc4qlYZm83uj14o-62" value="&amp;nbsp;确认验证码" style="html=1;points=[[0,0,0,0,5],[0,1,0,0,-5],[1,0,0,0,5],[1,1,0,0,-5]];perimeter=orthogonalPerimeter;outlineConnect=0;targetShapes=umlLifeline;portConstraint=eastwest;newEdgeStyle={&quot;curved&quot;:0,&quot;rounded&quot;:0};" vertex="1" parent="IgjHeNc4qlYZm83uj14o-46">
          <mxGeometry x="45" y="330" width="10" height="80" as="geometry" />
        </mxCell>
        <mxCell id="IgjHeNc4qlYZm83uj14o-65" value="注册逻辑" style="html=1;points=[[0,0,0,0,5],[0,1,0,0,-5],[1,0,0,0,5],[1,1,0,0,-5]];perimeter=orthogonalPerimeter;outlineConnect=0;targetShapes=umlLifeline;portConstraint=eastwest;newEdgeStyle={&quot;curved&quot;:0,&quot;rounded&quot;:0};" vertex="1" parent="IgjHeNc4qlYZm83uj14o-46">
          <mxGeometry x="45" y="500" width="10" height="60" as="geometry" />
        </mxCell>
        <mxCell id="IgjHeNc4qlYZm83uj14o-48" value="1. 获取邮箱验证码&lt;div&gt;email&lt;/div&gt;" style="html=1;verticalAlign=bottom;startArrow=oval;startFill=1;endArrow=block;startSize=8;curved=0;rounded=0;align=center;" edge="1" parent="IgjHeNc4qlYZm83uj14o-71">
          <mxGeometry x="-0.1285" y="-10" width="60" relative="1" as="geometry">
            <mxPoint x="19.5" y="90" as="sourcePoint" />
            <mxPoint x="259.5" y="90" as="targetPoint" />
            <mxPoint as="offset" />
          </mxGeometry>
        </mxCell>
        <mxCell id="IgjHeNc4qlYZm83uj14o-52" value="return success" style="html=1;verticalAlign=bottom;endArrow=open;dashed=1;endSize=8;curved=0;rounded=0;" edge="1" parent="IgjHeNc4qlYZm83uj14o-71">
          <mxGeometry relative="1" as="geometry">
            <mxPoint x="259.5" y="180" as="sourcePoint" />
            <mxPoint x="25" y="180" as="targetPoint" />
          </mxGeometry>
        </mxCell>
        <mxCell id="IgjHeNc4qlYZm83uj14o-55" value="Email" style="shape=umlLifeline;perimeter=lifelinePerimeter;whiteSpace=wrap;html=1;container=1;dropTarget=0;collapsible=0;recursiveResize=0;outlineConnect=0;portConstraint=eastwest;newEdgeStyle={&quot;curved&quot;:0,&quot;rounded&quot;:0};" vertex="1" parent="IgjHeNc4qlYZm83uj14o-71">
          <mxGeometry x="410" width="100" height="540" as="geometry" />
        </mxCell>
        <mxCell id="IgjHeNc4qlYZm83uj14o-56" value="" style="html=1;points=[[0,0,0,0,5],[0,1,0,0,-5],[1,0,0,0,5],[1,1,0,0,-5]];perimeter=orthogonalPerimeter;outlineConnect=0;targetShapes=umlLifeline;portConstraint=eastwest;newEdgeStyle={&quot;curved&quot;:0,&quot;rounded&quot;:0};" vertex="1" parent="IgjHeNc4qlYZm83uj14o-55">
          <mxGeometry x="45" y="110" width="10" height="50" as="geometry" />
        </mxCell>
        <mxCell id="IgjHeNc4qlYZm83uj14o-59" value="" style="html=1;points=[[0,0,0,0,5],[0,1,0,0,-5],[1,0,0,0,5],[1,1,0,0,-5]];perimeter=orthogonalPerimeter;outlineConnect=0;targetShapes=umlLifeline;portConstraint=eastwest;newEdgeStyle={&quot;curved&quot;:0,&quot;rounded&quot;:0};" vertex="1" parent="IgjHeNc4qlYZm83uj14o-55">
          <mxGeometry x="45" y="225" width="10" height="57" as="geometry" />
        </mxCell>
        <mxCell id="IgjHeNc4qlYZm83uj14o-57" value="&amp;nbsp;发送验证码到邮箱" style="html=1;verticalAlign=bottom;endArrow=block;curved=0;rounded=0;entryX=0;entryY=0;entryDx=0;entryDy=5;" edge="1" parent="IgjHeNc4qlYZm83uj14o-71">
          <mxGeometry relative="1" as="geometry">
            <mxPoint x="259.5" y="120" as="sourcePoint" />
            <mxPoint x="465.5" y="120" as="targetPoint" />
          </mxGeometry>
        </mxCell>
        <mxCell id="IgjHeNc4qlYZm83uj14o-58" value="return success" style="html=1;verticalAlign=bottom;endArrow=open;dashed=1;endSize=8;curved=0;rounded=0;exitX=0;exitY=1;exitDx=0;exitDy=-5;" edge="1" source="IgjHeNc4qlYZm83uj14o-56" parent="IgjHeNc4qlYZm83uj14o-71" target="IgjHeNc4qlYZm83uj14o-46">
          <mxGeometry relative="1" as="geometry">
            <mxPoint x="265" y="185" as="targetPoint" />
          </mxGeometry>
        </mxCell>
        <mxCell id="IgjHeNc4qlYZm83uj14o-61" value="&amp;nbsp;code" style="html=1;verticalAlign=bottom;endArrow=open;dashed=1;endSize=8;curved=0;rounded=0;exitX=0;exitY=1;exitDx=0;exitDy=-5;" edge="1" source="IgjHeNc4qlYZm83uj14o-59" parent="IgjHeNc4qlYZm83uj14o-71" target="IgjHeNc4qlYZm83uj14o-45">
          <mxGeometry relative="1" as="geometry">
            <mxPoint x="184.5" y="288" as="targetPoint" />
          </mxGeometry>
        </mxCell>
        <mxCell id="IgjHeNc4qlYZm83uj14o-60" value="2. 在邮箱中 查看验证码" style="html=1;verticalAlign=bottom;endArrow=block;curved=0;rounded=0;entryX=0;entryY=0;entryDx=0;entryDy=5;" edge="1" target="IgjHeNc4qlYZm83uj14o-59" parent="IgjHeNc4qlYZm83uj14o-71" source="IgjHeNc4qlYZm83uj14o-45">
          <mxGeometry relative="1" as="geometry">
            <mxPoint x="184.5" y="218" as="sourcePoint" />
          </mxGeometry>
        </mxCell>
        <mxCell id="IgjHeNc4qlYZm83uj14o-63" value="3. 确认验证码合法性&lt;div&gt;email&lt;/div&gt;&lt;div&gt;code&lt;/div&gt;" style="html=1;verticalAlign=bottom;endArrow=block;curved=0;rounded=0;entryX=0;entryY=0;entryDx=0;entryDy=5;" edge="1" target="IgjHeNc4qlYZm83uj14o-62" parent="IgjHeNc4qlYZm83uj14o-71" source="IgjHeNc4qlYZm83uj14o-45">
          <mxGeometry relative="1" as="geometry">
            <mxPoint x="185" y="335" as="sourcePoint" />
          </mxGeometry>
        </mxCell>
        <mxCell id="IgjHeNc4qlYZm83uj14o-64" value="return success" style="html=1;verticalAlign=bottom;endArrow=open;dashed=1;endSize=8;curved=0;rounded=0;exitX=0;exitY=1;exitDx=0;exitDy=-5;" edge="1" source="IgjHeNc4qlYZm83uj14o-62" parent="IgjHeNc4qlYZm83uj14o-71" target="IgjHeNc4qlYZm83uj14o-45">
          <mxGeometry relative="1" as="geometry">
            <mxPoint x="185" y="405" as="targetPoint" />
          </mxGeometry>
        </mxCell>
        <mxCell id="IgjHeNc4qlYZm83uj14o-66" value="4. 注册&lt;div&gt;email&lt;/div&gt;&lt;div&gt;password&lt;/div&gt;&lt;div&gt;code&lt;/div&gt;" style="html=1;verticalAlign=bottom;endArrow=block;curved=0;rounded=0;entryX=0;entryY=0;entryDx=0;entryDy=5;" edge="1" target="IgjHeNc4qlYZm83uj14o-65" parent="IgjHeNc4qlYZm83uj14o-71" source="IgjHeNc4qlYZm83uj14o-45">
          <mxGeometry relative="1" as="geometry">
            <mxPoint x="185" y="445" as="sourcePoint" />
          </mxGeometry>
        </mxCell>
        <mxCell id="IgjHeNc4qlYZm83uj14o-67" value="return success" style="html=1;verticalAlign=bottom;endArrow=open;dashed=1;endSize=8;curved=0;rounded=0;exitX=0;exitY=1;exitDx=0;exitDy=-5;" edge="1" source="IgjHeNc4qlYZm83uj14o-65" parent="IgjHeNc4qlYZm83uj14o-71" target="IgjHeNc4qlYZm83uj14o-45">
          <mxGeometry x="0.0019" relative="1" as="geometry">
            <mxPoint x="185" y="515" as="targetPoint" />
            <mxPoint as="offset" />
          </mxGeometry>
        </mxCell>
        <mxCell id="IgjHeNc4qlYZm83uj14o-73" value="" style="shape=umlLifeline;perimeter=lifelinePerimeter;whiteSpace=wrap;html=1;container=1;dropTarget=0;collapsible=0;recursiveResize=0;outlineConnect=0;portConstraint=eastwest;newEdgeStyle={&quot;curved&quot;:0,&quot;rounded&quot;:0};participant=umlActor;" vertex="1" parent="1">
          <mxGeometry x="-480" y="80" width="20" height="610" as="geometry" />
        </mxCell>
        <mxCell id="IgjHeNc4qlYZm83uj14o-78" value="login" style="html=1;points=[[0,0,0,0,5],[0,1,0,0,-5],[1,0,0,0,5],[1,1,0,0,-5]];perimeter=orthogonalPerimeter;outlineConnect=0;targetShapes=umlLifeline;portConstraint=eastwest;newEdgeStyle={&quot;curved&quot;:0,&quot;rounded&quot;:0};" vertex="1" parent="IgjHeNc4qlYZm83uj14o-73">
          <mxGeometry x="5" y="90" width="10" height="60" as="geometry" />
        </mxCell>
        <mxCell id="IgjHeNc4qlYZm83uj14o-82" value="&amp;nbsp;验证设备可用性" style="html=1;points=[[0,0,0,0,5],[0,1,0,0,-5],[1,0,0,0,5],[1,1,0,0,-5]];perimeter=orthogonalPerimeter;outlineConnect=0;targetShapes=umlLifeline;portConstraint=eastwest;newEdgeStyle={&quot;curved&quot;:0,&quot;rounded&quot;:0};" vertex="1" parent="IgjHeNc4qlYZm83uj14o-73">
          <mxGeometry x="5" y="210" width="10" height="160" as="geometry" />
        </mxCell>
        <mxCell id="IgjHeNc4qlYZm83uj14o-74" value="API" style="shape=umlLifeline;perimeter=lifelinePerimeter;whiteSpace=wrap;html=1;container=1;dropTarget=0;collapsible=0;recursiveResize=0;outlineConnect=0;portConstraint=eastwest;newEdgeStyle={&quot;curved&quot;:0,&quot;rounded&quot;:0};" vertex="1" parent="1">
          <mxGeometry x="-230" y="80" width="100" height="600" as="geometry" />
        </mxCell>
        <mxCell id="IgjHeNc4qlYZm83uj14o-75" value="" style="html=1;points=[[0,0,0,0,5],[0,1,0,0,-5],[1,0,0,0,5],[1,1,0,0,-5]];perimeter=orthogonalPerimeter;outlineConnect=0;targetShapes=umlLifeline;portConstraint=eastwest;newEdgeStyle={&quot;curved&quot;:0,&quot;rounded&quot;:0};" vertex="1" parent="IgjHeNc4qlYZm83uj14o-74">
          <mxGeometry x="45" y="100" width="10" height="40" as="geometry" />
        </mxCell>
        <mxCell id="IgjHeNc4qlYZm83uj14o-79" value="&amp;nbsp;查看设备信息&lt;div&gt;1.验证设备是否注册，未注册则进行注册&lt;/div&gt;&lt;div&gt;2.验证设备是否可用，返回设备的失效时间&lt;/div&gt;" style="html=1;points=[[0,0,0,0,5],[0,1,0,0,-5],[1,0,0,0,5],[1,1,0,0,-5]];perimeter=orthogonalPerimeter;outlineConnect=0;targetShapes=umlLifeline;portConstraint=eastwest;newEdgeStyle={&quot;curved&quot;:0,&quot;rounded&quot;:0};" vertex="1" parent="IgjHeNc4qlYZm83uj14o-74">
          <mxGeometry x="45" y="220" width="10" height="130" as="geometry" />
        </mxCell>
        <mxCell id="IgjHeNc4qlYZm83uj14o-76" value="email&lt;div&gt;password&lt;/div&gt;" style="html=1;verticalAlign=bottom;endArrow=block;curved=0;rounded=0;entryX=0;entryY=0;entryDx=0;entryDy=5;" edge="1" target="IgjHeNc4qlYZm83uj14o-75" parent="1" source="IgjHeNc4qlYZm83uj14o-78">
          <mxGeometry relative="1" as="geometry">
            <mxPoint x="-255" y="185" as="sourcePoint" />
          </mxGeometry>
        </mxCell>
        <mxCell id="IgjHeNc4qlYZm83uj14o-77" value="return" style="html=1;verticalAlign=bottom;endArrow=open;dashed=1;endSize=8;curved=0;rounded=0;exitX=0;exitY=1;exitDx=0;exitDy=-5;" edge="1" source="IgjHeNc4qlYZm83uj14o-75" parent="1" target="IgjHeNc4qlYZm83uj14o-78">
          <mxGeometry relative="1" as="geometry">
            <mxPoint x="-255" y="255" as="targetPoint" />
          </mxGeometry>
        </mxCell>
        <mxCell id="IgjHeNc4qlYZm83uj14o-80" value="&amp;nbsp;user_id&lt;div&gt;device_code&lt;/div&gt;" style="html=1;verticalAlign=bottom;endArrow=block;curved=0;rounded=0;entryX=0;entryY=0;entryDx=0;entryDy=5;" edge="1" target="IgjHeNc4qlYZm83uj14o-79" parent="1" source="IgjHeNc4qlYZm83uj14o-82">
          <mxGeometry relative="1" as="geometry">
            <mxPoint x="-255" y="295" as="sourcePoint" />
          </mxGeometry>
        </mxCell>
        <mxCell id="IgjHeNc4qlYZm83uj14o-81" value="user_id&lt;div&gt;device_id&lt;/div&gt;&lt;div&gt;vip_expire&lt;/div&gt;" style="html=1;verticalAlign=bottom;endArrow=open;dashed=1;endSize=8;curved=0;rounded=0;exitX=0;exitY=1;exitDx=0;exitDy=-5;" edge="1" source="IgjHeNc4qlYZm83uj14o-79" parent="1" target="IgjHeNc4qlYZm83uj14o-82">
          <mxGeometry x="-0.0357" y="15" relative="1" as="geometry">
            <mxPoint x="-255" y="365" as="targetPoint" />
            <mxPoint as="offset" />
          </mxGeometry>
        </mxCell>
      </root>
    </mxGraphModel>
  </diagram>
</mxfile>
